<?xml version="1.0" encoding="UTF-8" standalone="no"?>
<svg width="1000" height="1600" viewBox="0 0 1000 1600" xmlns="http://www.w3.org/2000/svg">
  <!-- Background with gradient for rock face -->
  <defs>
    <linearGradient id="rockGradient" x1="0%" y1="0%" x2="100%" y2="0%">
      <stop offset="0%" style="stop-color:#8a7061;stop-opacity:1" />
      <stop offset="50%" style="stop-color:#6e5a4b;stop-opacity:1" />
      <stop offset="100%" style="stop-color:#574638;stop-opacity:1" />
    </linearGradient>
    <linearGradient id="ropeGradient" x1="0%" y1="0%" x2="100%" y2="0%">
      <stop offset="0%" style="stop-color:#e67e22;stop-opacity:1" />
      <stop offset="100%" style="stop-color:#d35400;stop-opacity:1" />
    </linearGradient>
    <linearGradient id="groundGradient" x1="0%" y1="0%" x2="0%" y2="100%">
      <stop offset="0%" style="stop-color:#7d5f4f;stop-opacity:1" />
      <stop offset="100%" style="stop-color:#5a4234;stop-opacity:1" />
    </linearGradient>
    <!-- Grigri pattern -->
    <pattern id="grigriPattern" patternUnits="userSpaceOnUse" width="50" height="50">
      <rect width="50" height="50" fill="#c0392b"/>
      <circle cx="25" cy="25" r="15" fill="#e74c3c"/>
    </pattern>
    <!-- Chest harness pattern -->
    <pattern id="chestHarnessPattern" patternUnits="userSpaceOnUse" width="20" height="20">
      <rect width="20" height="20" fill="none"/>
      <path d="M0,10 L20,10 M10,0 L10,20" stroke="#34495e" stroke-width="2"/>
    </pattern>
  </defs>

  <!-- Rock Face Background -->
  <rect x="0" y="0" width="1000" height="1600" fill="url(#rockGradient)"/>
  
  <!-- Ground -->
  <rect x="0" y="1400" width="1000" height="200" fill="url(#groundGradient)"/>
  
  <!-- Title and description -->
  <text x="500" y="60" font-family="Arial" font-size="36" text-anchor="middle" fill="white" font-weight="bold">Lead Rope Soloing: Complete System Diagram</text>
  <text x="500" y="100" font-family="Arial" font-size="18" text-anchor="middle" fill="white">Shows proper setup with a GriGri, backup knots, and required equipment</text>

  <!-- Anchor setup at the bottom -->
  <g id="groundAnchor">
    <rect x="450" y="1350" width="100" height="50" rx="5" fill="#7f8c8d"/>
    <text x="500" y="1380" font-family="Arial" font-size="14" text-anchor="middle" fill="white" font-weight="bold">ANCHOR</text>
    
    <!-- Master point -->
    <circle cx="500" cy="1340" r="10" fill="#e74c3c"/>
    
    <!-- Upward pull directional -->
    <line x1="480" y1="1330" x2="450" y2="1300" stroke="#3498db" stroke-width="4"/>
    <circle cx="450" cy="1300" r="8" fill="#3498db"/>
    <text x="440" y="1290" font-family="Arial" font-size="12" text-anchor="end" fill="white">Upward Pull Protection</text>
  </g>

  <!-- Rope tied to anchor -->
  <path d="M500,1340 C500,1340 505,1325 500,1320 C495,1315 490,1310 495,1300" stroke="url(#ropeGradient)" stroke-width="6" fill="none"/>
  <text x="520" y="1320" font-family="Arial" font-size="12" fill="white">Figure-8 Knot</text>

  <!-- Primary Climbing Figure (at start of climb) -->
  <g id="climberStart">
    <!-- Harness -->
    <rect x="480" y="1200" width="40" height="15" rx="3" fill="#3498db"/>
    
    <!-- Body -->
    <rect x="490" y="1150" width="20" height="50" rx="5" fill="#f5b041"/>
    <circle cx="500" cy="1140" r="15" fill="#f5b041"/>
    
    <!-- Arms -->
    <line x1="490" y1="1160" x2="470" y2="1170" stroke="#f5b041" stroke-width="10" stroke-linecap="round"/>
    <line x1="510" y1="1160" x2="530" y2="1170" stroke="#f5b041" stroke-width="10" stroke-linecap="round"/>
    
    <!-- Legs -->
    <line x1="495" y1="1200" x2="485" y2="1230" stroke="#f5b041" stroke-width="10" stroke-linecap="round"/>
    <line x1="505" y1="1200" x2="515" y2="1230" stroke="#f5b041" stroke-width="10" stroke-linecap="round"/>
    
    <!-- Chest Harness -->
    <rect x="485" y="1155" width="30" height="25" rx="2" fill="url(#chestHarnessPattern)" stroke="#34495e" stroke-width="2"/>
    
    <!-- GriGri on Chest -->
    <rect x="490" y="1165" width="20" height="20" rx="3" fill="url(#grigriPattern)" stroke="#7f8c8d" stroke-width="2"/>
    <circle cx="500" cy="1175" r="5" fill="#ecf0f1"/>
    <text x="530" y="1175" font-family="Arial" font-size="12" fill="white">GriGri</text>
    
    <!-- Rope bag on side -->
    <rect x="530" y="1190" width="30" height="25" rx="3" fill="#9b59b6"/>
    <text x="545" y="1230" font-family="Arial" font-size="12" text-anchor="middle" fill="white">Rope Bag</text>
  </g>

  <!-- Main climbing rope from anchor to climber -->
  <!-- Load strand (green in original text) -->
  <path d="M495,1300 C495,1290 480,1280 490,1270 C500,1260 520,1250 510,1240 C500,1230 485,1220 495,1210 C505,1200 510,1187 500,1175" stroke="#2ecc71" stroke-width="6" fill="none" stroke-dasharray="0"/>
  <text x="450" y="1250" font-family="Arial" font-size="16" fill="#2ecc71" font-weight="bold">LOAD STRAND</text>
  <text x="450" y="1270" font-family="Arial" font-size="12" fill="white">Runs from anchor to device's "climber side"</text>

  <!-- First Piece of Pro -->
  <rect x="515" y="1100" width="15" height="30" rx="2" fill="#f1c40f"/>
  <circle cx="522" cy="1090" r="8" fill="#f1c40f"/>
  <text x="545" y="1100" font-family="Arial" font-size="12" fill="white">First Protection</text>
  <text x="545" y="1115" font-family="Arial" font-size="12" fill="white">("Jesus Piece")</text>

  <!-- Rope continuing up through first piece -->
  <path d="M500,1175 C495,1165 500,1155 510,1145 C520,1135 525,1115 522,1090" stroke="#2ecc71" stroke-width="6" fill="none"/>

  <!-- Second climber position (higher up) -->
  <g id="climberHigher" transform="translate(0, -250)">
    <!-- Harness -->
    <rect x="480" y="1200" width="40" height="15" rx="3" fill="#3498db"/>
    
    <!-- Body -->
    <rect x="490" y="1150" width="20" height="50" rx="5" fill="#f5b041"/>
    <circle cx="500" cy="1140" r="15" fill="#f5b041"/>
    
    <!-- Arms -->
    <line x1="490" y1="1160" x2="470" y2="1170" stroke="#f5b041" stroke-width="10" stroke-linecap="round"/>
    <line x1="510" y1="1160" x2="530" y2="1170" stroke="#f5b041" stroke-width="10" stroke-linecap="round"/>
    
    <!-- Legs -->
    <line x1="495" y1="1200" x2="485" y2="1230" stroke="#f5b041" stroke-width="10" stroke-linecap="round"/>
    <line x1="505" y1="1200" x2="515" y2="1230" stroke="#f5b041" stroke-width="10" stroke-linecap="round"/>
    
    <!-- Chest Harness -->
    <rect x="485" y="1155" width="30" height="25" rx="2" fill="url(#chestHarnessPattern)" stroke="#34495e" stroke-width="2"/>
    
    <!-- GriGri on Chest -->
    <rect x="490" y="1165" width="20" height="20" rx="3" fill="url(#grigriPattern)" stroke="#7f8c8d" stroke-width="2"/>
    <circle cx="500" cy="1175" r="5" fill="#ecf0f1"/>
  </g>

  <!-- More pieces of pro -->
  <rect x="535" y="950" width="15" height="30" rx="2" fill="#f1c40f"/>
  <circle cx="542" cy="940" r="8" fill="#f1c40f"/>
  <rect x="475" y="850" width="15" height="30" rx="2" fill="#f1c40f"/>
  <circle cx="482" cy="840" r="8" fill="#f1c40f"/>
  <rect x="525" y="750" width="15" height="30" rx="2" fill="#f1c40f"/>
  <circle cx="532" cy="740" r="8" fill="#f1c40f"/>

  <!-- Rope path for higher section -->
  <path d="M522,1090 C530,1070 550,1050 545,1030 C540,1010 532,980 542,940" stroke="#2ecc71" stroke-width="6" fill="none"/>
  <path d="M542,940 C550,920 535,900 520,880 C505,860 490,850 482,840" stroke="#2ecc71" stroke-width="6" fill="none"/>
  <path d="M482,840 C475,825 480,810 490,795 C500,780 520,760 532,740" stroke="#2ecc71" stroke-width="6" fill="none"/>
  <path d="M532,740 C540,720 530,700 515,680 C500,660 490,640 500,620" stroke="#2ecc71" stroke-width="6" fill="none"/>

  <!-- Top anchor -->
  <g id="topAnchor">
    <rect x="450" y="500" width="100" height="50" rx="5" fill="#7f8c8d"/>
    <text x="500" y="530" font-family="Arial" font-size="14" text-anchor="middle" fill="white" font-weight="bold">TOP ANCHOR</text>
    <circle cx="500" cy="565" r="10" fill="#e74c3c"/>
  </g>

  <!-- Free end rope (brake strand) - Red in original text -->
  <path d="M500,1175 C510,1165 520,1170 525,1180 C530,1190 535,1210 525,1220 C515,1230 505,1240 515,1250 C525,1260 535,1270 530,1280 C525,1290 515,1300 520,1310 C525,1320 530,1330 525,1340" stroke="#e74c3c" stroke-width="6" fill="none"/>
  <text x="580" y="1250" font-family="Arial" font-size="16" fill="#e74c3c" font-weight="bold">BRAKE STRAND</text>
  <text x="580" y="1270" font-family="Arial" font-size="12" fill="white">Free end from device's "brake side"</text>

  <!-- Backup knots on brake strand -->
  <circle cx="515" y="1250" r="10" fill="#e74c3c" stroke="white" stroke-width="2"/>
  <text x="475" y="1250" font-family="Arial" font-size="12" fill="white" text-anchor="end">Backup Knot</text>
  <circle cx="530" y="1280" r="10" fill="#e74c3c" stroke="white" stroke-width="2"/>
  <text x="570" y="1280" font-family="Arial" font-size="12" fill="white">Figure-8 on a bight</text>

  <!-- Key points for diagram -->
  <g id="infoPoints">
    <!-- Chest Harness Explanation -->
    <line x1="400" y1="1155" x2="485" y2="1165" stroke="white" stroke-width="1" stroke-dasharray="5,5"/>
    <text x="380" y="1135" font-family="Arial" font-size="12" fill="white" text-anchor="end">Chest harness keeps</text>
    <text x="380" y="1150" font-family="Arial" font-size="12" fill="white" text-anchor="end">GriGri properly oriented</text>
    
    <!-- Device Orientation -->
    <line x1="400" y1="1175" x2="490" y2="1175" stroke="white" stroke-width="1" stroke-dasharray="5,5"/>
    <text x="380" y="1175" font-family="Arial" font-size="12" fill="white" text-anchor="end">GriGri flipped upside-down</text>
    <text x="380" y="1190" font-family="Arial" font-size="12" fill="white" text-anchor="end">from normal orientation</text>
    
    <!-- First Pro Importance -->
    <line x1="600" y1="1090" x2="522" y2="1090" stroke="white" stroke-width="1" stroke-dasharray="5,5"/>
    <text x="620" y="1090" font-family="Arial" font-size="12" fill="white">First piece reduces</text>
    <text x="620" y="1105" font-family="Arial" font-size="12" fill="white">factor 2 fall danger</text>
    
    <!-- Backup System -->
    <line x1="450" y1="1280" x2="530" y2="1280" stroke="white" stroke-width="1" stroke-dasharray="5,5"/>
    <text x="430" y="1280" font-family="Arial" font-size="12" fill="white" text-anchor="end">Backup knots clipped</text>
    <text x="430" y="1295" font-family="Arial" font-size="12" fill="white" text-anchor="end">to harness gear loops</text>
    
    <!-- Multi-directional Anchor -->
    <line x1="350" y1="1350" x2="450" y2="1350" stroke="white" stroke-width="1" stroke-dasharray="5,5"/>
    <text x="330" y="1350" font-family="Arial" font-size="12" fill="white" text-anchor="end">Multi-directional anchor</text>
    <text x="330" y="1365" font-family="Arial" font-size="12" fill="white" text-anchor="end">must hold upward pulls</text>
  </g>

  <!-- Warning box -->
  <rect x="100" y="1450" width="350" height="120" rx="10" fill="#c0392b" fill-opacity="0.8"/>
  <text x="275" y="1480" font-family="Arial" font-size="16" fill="white" text-anchor="middle" font-weight="bold">CRITICAL SAFETY WARNING</text>
  <text x="275" y="1505" font-family="Arial" font-size="14" fill="white" text-anchor="middle">Device orientation is critical - incorrect setup</text>
  <text x="275" y="1525" font-family="Arial" font-size="14" fill="white" text-anchor="middle">WILL NOT catch a fall and could be fatal.</text>
  <text x="275" y="1545" font-family="Arial" font-size="14" fill="white" text-anchor="middle">Always test near ground before committing.</text>

  <!-- Transition Steps between pitches -->
  <g id="transitionInfo">
    <rect x="50" y="700" width="330" height="200" rx="10" fill="#2c3e50" fill-opacity="0.7"/>
    <text x="215" y="730" font-family="Arial" font-size="18" fill="white" text-anchor="middle" font-weight="bold">MULTI-PITCH TRANSITION</text>
    <text x="70" y="760" font-family="Arial" font-size="14" fill="white">1. Fix rope at top anchor (redundantly)</text>
    <text x="70" y="790" font-family="Arial" font-size="14" fill="white">2. Remove self-belay device, setup rappel</text>
    <text x="70" y="820" font-family="Arial" font-size="14" fill="white">3. Rappel while cleaning gear</text>
    <text x="70" y="850" font-family="Arial" font-size="14" fill="white">4. Setup ascenders, jumar back up</text>
    <text x="70" y="880" font-family="Arial" font-size="14" fill="white">5. Repeat for next pitch</text>
  </g>

  <!-- Sequence indicators -->
  <text x="500" y="1420" font-family="Arial" font-size="16" fill="white" text-anchor="middle" font-weight="bold">START HERE</text>
  <path d="M500,1400 L500,1380" stroke="white" stroke-width="2" marker-end="url(#arrowhead)"/>
  
  <!-- Falling scenario -->
  <g id="fallScenario">
    <rect x="620" y="800" width="330" height="200" rx="10" fill="#2c3e50" fill-opacity="0.7"/>
    <text x="785" y="830" font-family="Arial" font-size="18" fill="white" text-anchor="middle" font-weight="bold">DURING A FALL</text>
    <text x="640" y="860" font-family="Arial" font-size="14" fill="white">• GriGri will lock automatically</text>
    <text x="640" y="890" font-family="Arial" font-size="14" fill="white">• You'll fall twice the slack distance</text>
    <text x="640" y="920" font-family="Arial" font-size="14" fill="white">• Backup knots prevent catastrophic failure</text>
    <text x="640" y="950" font-family="Arial" font-size="14" fill="white">• Get hand on brake strand immediately</text>
    <text x="640" y="980" font-family="Arial" font-size="14" fill="white">• Tie off rope if needed before continuing</text>
  </g>
  
  <!-- Arrowhead marker for the path -->
  <defs>
    <marker id="arrowhead" markerWidth="10" markerHeight="7" refX="0" refY="3.5" orient="auto">
      <polygon points="0 0, 10 3.5, 0 7" fill="white"/>
    </marker>
  </defs>

  <!-- Progress Path -->
  <path d="M500,1340 L500,1000 L650,1000 L650,800 L500,800 L500,600" stroke="white" stroke-width="3" stroke-dasharray="10,5" fill="none" marker-end="url(#arrowhead)"/>
</svg>
